<svg enable-background="new 0 0 1024 752" viewBox="0 0 1024 752" xmlns="http://www.w3.org/2000/svg"><path d="m48.765381 435.234528c-12.038399-12.027588-23.837382-23.794709-35.60137-35.59668-9.179885-9.209564-9.24395-20.40036-.06276-29.582672 82.478087-82.488373 164.981345-164.951584 247.470069-247.429314 26.867767-26.864159 53.694366-53.769531 80.584106-80.611622 7.378418-7.365329 15.279694-9.094017 23.08902-5.356601 3.072449 1.470405 5.409088 3.832748 7.767273 6.200622 18.343017 18.418289 36.70047 36.822182 55.070068 55.213928 1.160736 1.162125 2.460968 2.18496 3.583069 3.172898 2.533173-.309021 3.598236-2.180336 4.96344-3.540947 18.412872-18.350785 36.781586-36.745888 55.176056-55.115177 10.187591-10.173626 20.774811-10.290627 31.008514-.132378 18.331909 18.196629 36.555969 36.501903 54.832825 54.753979 1.399536 1.397636 2.860474 2.733818 4.19812 4.008323 2.68988-.473694 3.848084-2.467025 5.328613-3.941795 18.299683-18.228828 36.546631-36.510498 54.835022-54.750706 10.15149-10.124748 20.893372-10.152096 31.016175-.033939 109.021545 108.971359 218.032653 217.953079 327.03717 326.941482 10.163574 10.16214 9.939697 20.695282-.283325 30.903901-28.879395 28.838348-57.661072 57.774475-86.514527 86.638824-33.320129 33.332733-66.694091 66.611603-100.009704 99.948822-25.082825 25.099182-50.109741 50.254334-75.162964 75.383118-21.872864 21.938904-43.723022 43.900635-65.633118 65.802246-9.348816 9.345154-20.258178 9.365722-29.960998-.258362-18.097473-17.9505-35.969605-36.128174-53.973816-54.173035-7.077271-7.0932-5.455078-6.783447-12.017578-.198547-17.404358 17.463806-34.718262 35.0177-52.087219 52.516846-11.996033 12.085937-21.818421 12.074279-33.861847.023803-18.141449-18.151977-36.358277-36.229675-54.364869-54.514404-3.065734-3.113037-4.851226-3.225098-7.970733-.056335-18.120178 18.406738-36.468506 36.588684-54.704193 54.88208-11.486359 11.522583-21.186737 11.623047-32.638672.165832-96.957047-97.001709-193.90596-194.011413-291.111847-291.26419m467.116882-215.603989c8.991516-11.534256 21.077881-11.795151 32.061218-.801514 50.05365 50.100785 100.118592 100.190476 150.211609 150.251908 10.407593 10.401062 10.595826 20.985717.32666 31.256256-56.562072 56.570007-113.130126 113.134186-169.694519 169.701935-22.154449 22.155639-44.30191 44.318176-66.461303 66.468872-2.046631 2.045837-4.212799 3.587829-.931824 6.802002 12.973663 12.709167 25.669189 25.701782 38.525146 38.53186 1.976105 1.972168 3.876374 4.117126 6.47641 5.326355 2.224457-.835877 3.522309-2.648621 5.032776-4.156067 21.585907-21.543457 43.147858-43.111084 64.708405-64.680054 23.209961-23.218872 46.431091-46.426635 69.604614-69.681823 5.732666-5.752869 12.371216-8.486084 20.385071-6.17865 15.081482 4.342529 18.926819 21.606201 7.213257 33.481933-20.00531 20.282227-40.220887 40.359436-60.545227 60.322083-3.16626 3.109924-3.28534 4.917602-.149536 7.995178 13.200744 12.955688 26.181335 26.135315 39.273193 39.20227 4.573608 4.564942 4.614197 4.524781 9.303162-.161193.353637-.353455.697998-.716187 1.051757-1.069458 98.336182-98.208191 196.673035-196.415802 295.005982-294.627228.809753-.808716 1.843994-1.4776 2.585388-3.410217-1.77832-2.177247-4.153198-3.759888-6.13269-5.73816-52.810608-52.776611-105.57367-105.600891-158.359437-158.402328-44.537719-44.550964-89.089965-89.087265-133.646911-133.618973-5.230591-5.227615-5.248596-5.180435-10.464905.047958-12.595032 12.624123-25.206543 25.231888-37.808411 37.849228-4.850708 4.856659-4.84967 4.863007-.087036 9.624375 57.748963 57.734344 115.500794 115.465973 173.247559 173.20253 20.860412 20.85672 41.725159 41.709045 62.557007 62.594238 9.522949 9.547333 9.540893 20.389801.128357 29.863922-4.111084 4.138001-8.263245 8.235169-12.385926 12.361694-33.334289 33.365509-66.682556 66.717164-99.980102 100.119416-4.744751 4.759704-10.157349 7.624328-16.987122 6.557068-7.909179-1.235901-13.480102-5.660584-16.001404-13.329346-2.628112-7.993378.013672-14.709442 5.753296-20.447815 31.58313-31.576508 63.177124-63.142242 94.731812-94.747131 1.70874-1.711426 3.943298-3.084259 4.35675-4.715546-101.247619-101.270294-202.058593-202.10376-303.193542-303.261322-14.811768 14.834289-29.981384 30.024399-45.146759 45.218758-1.828552 1.832054-.750336 3.25724.657593 4.665702 4.123474 4.125107 8.19696 8.300614 12.350433 12.395111 2.39624 2.362214 4.582275 4.835236 5.724548 8.073807 2.948304 8.358963-.11615 17.918793-7.237854 22.550705-8.057617 5.240631-17.53302 4.253021-24.638824-2.8134-29.067658-28.906571-58.124085-57.824806-87.056519-86.866364-3.046692-3.058174-4.832519-3.261177-8.009369-.079963-98.214126 98.348869-196.523391 196.602745-294.812828 294.876396-4.716987 4.716278-4.701751 4.744873.17025 9.616119 97.935288 97.919983 195.871826 195.838654 293.809998 293.755707 4.716644 4.715637 4.730194 4.712952 9.219269.225464 92.046966-92.015564 184.086639-184.03833 276.149627-276.037811 7.511536-7.506348 15.181824-14.853882 22.972351-22.464692-2.091186-2.317535-3.45813-3.971557-4.967651-5.483276-11.656433-11.673736-23.348022-23.312317-35.014465-34.976044-33.350647-33.342743-66.720215-66.666595-100.021973-100.05812-7.750488-7.771378-8.761169-14.408554-3.857361-25.132355z" fill="#fff"/></svg>